<svg width="32" height="32" viewBox="0 0 32 32" fill="none" xmlns="http://www.w3.org/2000/svg">
    <path d="M5.84668 9.63368H5.86066C5.8566 9.63525 5.85141 9.63525 5.84668 9.63368Z" fill="#308D8A" />
    <g clipPath="url(#clip0_205_60)">
        <path
            d="M21 12C21 7.02944 16.9706 3 12 3C7.02944 3 3 7.02944 3 12C3 16.9706 7.02944 21 12 21C16.9706 21 21 16.9706 21 12Z"
            fill="url(#paint0_linear_205_60)" />
        <path
            d="M21 12C21 7.02944 16.9706 3 12 3C7.02944 3 3 7.02944 3 12C3 16.9706 7.02944 21 12 21C16.9706 21 21 16.9706 21 12Z"
            fill="url(#paint1_radial_205_60)" fillOpacity="0.46" />
        <mask id="mask0_205_60" style={style} maskUnits="userSpaceOnUse" x="7" y="8" width="10" height="8">
            <path d="M16.5 8.78577H7.5V15.8361H16.5V8.78577Z" fill="white" />
        </mask>
        <g mask="url(#mask0_205_60)">
            <path
                d="M8.9573 14.1753C9.01242 14.1201 9.08724 14.0892 9.16525 14.0892H16.3606C16.4917 14.0892 16.5573 14.2477 16.4646 14.3403L15.0428 15.761C14.9876 15.8161 14.9128 15.8471 14.8349 15.8471H7.63945C7.50837 15.8471 7.44277 15.6886 7.53548 15.596L8.9573 14.1753Z"
                fill="white" />
            <path
                d="M8.9573 8.86779C9.01242 8.81266 9.08724 8.78172 9.16525 8.78172H16.3606C16.4917 8.78172 16.5573 8.94018 16.4646 9.03288L15.0428 10.4535C14.9876 10.5087 14.9128 10.5396 14.8349 10.5396H7.63945C7.50837 10.5396 7.44277 10.3811 7.53548 10.2884L8.9573 8.86779Z"
                fill="white" />
            <path
                d="M15.0428 11.5047C14.9876 11.4496 14.9128 11.4186 14.8349 11.4186H7.63945C7.50837 11.4186 7.44277 11.5771 7.53548 11.6698L8.9573 13.0905C9.01242 13.1455 9.08724 13.1765 9.16525 13.1765H16.3606C16.4917 13.1765 16.5573 13.018 16.4646 12.9254L15.0428 11.5047Z"
                fill="white" />
        </g>
        <path
            d="M12 19.3929C16.083 19.3929 19.3929 16.083 19.3929 12.0001C19.3929 7.91708 16.083 4.60718 12 4.60718C7.91702 4.60718 4.60712 7.91708 4.60712 12.0001C4.60712 16.083 7.91702 19.3929 12 19.3929Z"
            stroke="white" strokeWidth="1.14286" />
    </g>
    <defs>
        <linearGradient id="paint0_linear_205_60" x1="8.14286" y1="8.46429" x2="15.2143" y2="15.5357"
            gradientUnits="userSpaceOnUse">
            <stop stopColor="#4BC57C" />
            <stop offset="1" stopColor="#289279" />
        </linearGradient>
        <radialGradient id="paint1_radial_205_60" cx="0" cy="0" r="1" gradientUnits="userSpaceOnUse"
            gradientTransform="translate(12 6.21429) rotate(90) scale(17.3571)">
            <stop stopColor="#F1F2B3" stopOpacity="0.92" />
            <stop offset="1" stopColor="#F5E8A3" stopOpacity="0" />
        </radialGradient>
        <clipPath id="clip0_205_60">
            <rect width="18" height="18" fill="white" transform="translate(3 3)" />
        </clipPath>
    </defs>
</svg>